<svg xmlns="http://www.w3.org/2000/svg" xmlns:svg="http://www.w3.org/2000/svg" id="svg1370" width="45mm" height="45mm" version="1.1" viewBox="0 0 45 45"><metadata id="metadata1367"/><g id="layer1" transform="translate(-6.641652,-0.36921291)"><path style="fill:#9558b2;fill-opacity:1;stroke:#9558b2;stroke-width:.69999999;stroke-linecap:square;stroke-linejoin:round;stroke-miterlimit:1;stroke-dasharray:none;stroke-dashoffset:0;stroke-opacity:1" id="path1000-5" d="M 26.73575,8.3604721 C 26.362252,8.5734375 24.71049,7.349449 22.259301,7.7541176 c -0.206885,0.041716 -0.407578,0.113822 -0.563924,0.2223684 -0.460776,0.2245479 -0.691746,0.8984517 -0.910226,1.7264421 -0.230779,1.1373309 -0.13012,2.3773269 0.07133,3.8088099 0.588465,3.93734 2.129319,7.704556 3.972719,11.293994 1.029334,1.971644 2.005687,3.623733 3.005726,5.080292 1.001371,1.4585 2.265405,3.063041 3.831727,4.520801 0.934591,0.851899 1.901432,1.660181 2.942077,2.065718 0.669965,0.20504 1.306512,0.384789 1.579025,0.152074 0,0 10e-7,-10e-7 10e-7,-10e-7 0.350622,-0.06651 0.626772,-0.645687 0.888013,-1.276348 0.342507,-1.011821 0.350636,-2.220963 0.301652,-3.41633 -0.292094,-5.885794 -2.55823,-10.548618 -2.079416,-11.23311 0.503779,0.02166 3.837137,4.381653 4.654094,11.007495 0.174453,1.332113 0.214234,2.854899 -0.190561,4.42315 -0.248471,1.125391 -0.959594,2.303553 -2.25751,3.078468 -10e-7,0 -3e-6,2e-6 -3e-6,2e-6 -1.434184,0.6413 -2.885901,0.527628 -3.99429,0.02922 -1.587101,-0.634894 -2.872715,-1.622811 -3.913403,-2.602138 -1.786906,-1.65106 -3.1971,-3.419478 -4.29314,-5.003982 -1.08903,-1.57437 -2.14075,-3.364776 -3.175622,-5.448761 C 20.223874,22.409418 18.67249,18.228812 18.251976,13.828038 18.088674,12.244682 18.118613,10.668475 18.540819,9.1512022 18.83024,7.919232 19.623058,6.8047763 20.79061,6.2007703 c 0.449697,-0.200443 0.904281,-0.2887782 1.330068,-0.2947796 3.732955,-0.036407 4.673353,2.3533432 4.615072,2.4544814 z"/><path style="fill:#389826;fill-opacity:1;stroke:#389826;stroke-width:.69999999;stroke-linecap:round;stroke-miterlimit:4;stroke-dasharray:none;stroke-opacity:1" id="path1002-5" d="m 42.444319,27.318077 c -0.03558,-0.274826 0.475815,-0.681457 1.302946,-1.34551 0.730579,-0.586538 1.976889,-1.545209 1.70743,-2.513513 0.0377,-0.479686 -0.427317,-0.99494 -1.015197,-1.585268 -0.864013,-0.764875 -1.990736,-1.294552 -3.302827,-1.828991 -4.005215,-1.589073 -8.305409,-2.062479 -11.730799,-2.253384 0,0 -0.0038,-2.09e-4 -0.0038,-2.09e-4 0,0 -2e-6,0 -2e-6,0 -0.7934,-0.04146 -1.662759,-0.07059 -2.567291,-0.06935 0,0 -1e-6,0 -1e-6,0 -3.279039,0.01739 -6.843571,0.25623 -10.146474,1.356736 -1.138639,0.392142 -2.108648,0.783897 -2.857053,1.379735 -0.524838,0.465382 -0.937881,0.884511 -0.956344,1.293234 -0.367913,0.886562 0.6936,1.929444 1.346887,2.59671 0.735572,0.75131 1.208779,1.229753 1.192798,1.544023 -0.180105,0.148007 -0.9342,0.13082 -1.982208,-0.385988 -0.959039,-0.472935 -2.54941,-1.606966 -2.759433,-3.870124 0.06405,-1.218395 0.648043,-2.32201 1.522828,-3.070706 1.041184,-0.953922 2.273614,-1.609556 3.551538,-2.094026 3.710933,-1.443287 7.638756,-1.802657 11.077139,-1.814128 0,0 1e-6,0 1e-6,0 0.9764,-0.0068 1.901235,0.02214 2.738394,0.06613 0,0 10e-7,0 10e-7,0 1e-6,0 0.004,1.96e-4 0.004,1.96e-4 3.585309,0.17702 8.253244,0.767762 12.657917,2.763903 1.435005,0.636579 2.804556,1.451524 3.930781,2.597034 0.929031,0.867205 1.511219,2.133349 1.451394,3.487263 -0.451917,2.282526 -2.22767,3.244173 -3.229542,3.60338 -1.112287,0.398794 -1.821396,0.321309 -1.93308,0.142853 z"/><path style="opacity:1;fill:#cb3c33;fill-opacity:1;stroke:#cb3c33;stroke-width:.69999999;stroke-linecap:round;stroke-miterlimit:4;stroke-dasharray:none;stroke-opacity:1" id="path1004-0" d="m 39.756899,14.122944 c -0.26384,-0.124896 -0.326122,-0.854355 -0.431404,-2.056248 -0.09298,-1.061512 -0.208775,-2.8472461 -1.301818,-3.1312449 0,8e-7 -10e-7,-2e-7 -10e-7,-2e-7 -0.236455,-0.1364035 -0.589015,-0.1614915 -0.977312,-0.1334496 -10e-7,2e-7 -10e-7,10e-8 -10e-7,10e-8 -1.794942,0.085679 -3.351546,1.5199446 -5.293999,3.1462356 -2.829691,2.557278 -5.022384,5.534117 -6.650323,8.031806 -1.1e-5,1.6e-5 -0.02806,0.04356 -0.02807,0.04358 -1.857006,2.885138 -3.968909,6.636866 -5.00905,10.784658 -0.328938,1.365734 -0.5583,2.590044 -0.440163,3.730835 0.137961,0.800967 0.276334,1.470298 0.668157,1.694609 0.674752,0.873093 2.302222,0.278325 3.330357,-0.07247 1.157765,-0.39502 1.884749,-0.644756 2.178069,-0.478485 0.04862,0.238209 -0.376039,0.986085 -1.455114,1.778472 -0.985448,0.723634 -2.975941,1.754049 -5.299107,0.690836 -1.153462,-0.774155 -1.828015,-2.00785 -1.976188,-3.263516 -0.26034,-1.5997 -0.105964,-3.191986 0.225414,-4.717356 0.983658,-4.71173 3.23516,-8.807931 5.199508,-11.818611 -1.7e-5,2.6e-5 0.02984,-0.04569 0.02983,-0.04566 1.706506,-2.636748 4.115269,-5.820734 7.343908,-8.524033 1.943748,-1.747107 4.296756,-3.3005648 7.085461,-3.386312 0.795459,-0.016376 1.594489,0.2149263 2.278099,0.6764305 1.928475,1.6947217 1.768062,3.9592765 1.511247,5.1232665 -0.285805,1.295388 -0.771037,1.926536 -0.987494,1.926657 z"/></g></svg>